<svg width="25" height="26" viewBox="0 0 25 26" fill="none" xmlns="http://www.w3.org/2000/svg">
<path opacity="0.7" fill-rule="evenodd" clip-rule="evenodd" d="M16.6584 15.254L24.6504 23.246L22.5722 25.3242L14.5802 17.3322C13.0877 18.4062 11.2885 19.0617 9.32187 19.0617C4.31464 19.0617 0.255859 15.0029 0.255859 9.99569C0.255859 4.98847 4.31464 0.929688 9.32187 0.929688C14.3291 0.929688 18.3879 4.98847 18.3879 9.99569C18.3879 11.9623 17.7323 13.7616 16.6584 15.254ZM9.32187 3.71923C5.84889 3.71923 3.0454 6.52272 3.0454 9.99569C3.0454 13.4687 5.84889 16.2722 9.32187 16.2722C12.7948 16.2722 15.5983 13.4687 15.5983 9.99569C15.5983 6.52272 12.7948 3.71923 9.32187 3.71923Z" fill="white"/>
</svg>
