<svg width="18" height="18" viewBox="0 0 18 18" fill="none" xmlns="http://www.w3.org/2000/svg">
<path d="M8.99888 11.9987C10.6551 11.9987 11.9978 10.6561 11.9978 8.99985C11.9978 7.34362 10.6551 6.00098 8.99888 6.00098C7.34264 6.00098 6 7.34362 6 8.99985C6 10.6561 7.34264 11.9987 8.99888 11.9987Z" fill="#324035"/>
<path d="M17.4501 7.06527C16.2873 5.17147 13.6423 1.99414 8.99998 1.99414C4.35771 1.99414 1.71269 5.17147 0.549868 7.06527C-0.183289 8.25111 -0.183289 9.74947 0.549868 10.9353C1.71269 12.8291 4.35771 16.0065 8.99998 16.0065C13.6423 16.0065 16.2873 12.8291 17.4501 10.9353C18.1833 9.74947 18.1833 8.25111 17.4501 7.06527ZM8.99998 13.4986C6.51564 13.4986 4.50165 11.4846 4.50165 9.00029C4.50165 6.51595 6.51564 4.50196 8.99998 4.50196C11.4843 4.50196 13.4983 6.51595 13.4983 9.00029C13.4958 11.4836 11.4833 13.4961 8.99998 13.4986Z" fill="#324035"/>
</svg>
