<svg width="19" height="19" viewBox="0 0 19 19" fill="none" xmlns="http://www.w3.org/2000/svg">
<g clip-path="url(#clip0_201_267)">
<path d="M16.875 4.91405V2.12105C16.875 1.70705 16.5398 1.37105 16.125 1.37105C15.7103 1.37105 15.375 1.70705 15.375 2.12105V3.89555L11.4728 1.2623C10.1985 0.402801 8.5515 0.402801 7.27725 1.2623L2.02725 4.8053C0.993 5.50355 0.375 6.6653 0.375 7.91405V14.871C0.375 16.9388 2.05725 18.621 4.125 18.621H7.05975C7.67625 18.621 8.23875 18.234 8.46 17.6588L9.4275 15.1403C9.516 14.91 9.48525 14.6506 9.34575 14.4466C9.20625 14.2425 8.9745 14.121 8.72775 14.121H6.66075C6.51825 14.121 6.44775 14.0303 6.4185 13.9771C6.38925 13.9231 6.35175 13.8143 6.42375 13.7041L10.1415 8.1773C10.188 8.1068 10.2945 8.10455 10.3448 8.17055C10.3688 8.20355 10.3755 8.2403 10.3628 8.28005L9.336 11.6528C9.267 11.8801 9.30975 12.1268 9.45075 12.3181C9.59175 12.5093 9.816 12.6218 10.0538 12.6218H12.2055C12.2783 12.6218 12.321 12.6608 12.345 12.6938C12.3675 12.7261 12.3908 12.7793 12.3668 12.8483L11.0618 16.632C10.9035 17.0896 10.977 17.5981 11.2583 17.9925C11.5388 18.3863 11.9955 18.6218 12.48 18.6218H14.6258C16.6935 18.6218 18.3758 16.9396 18.3758 14.8718V7.91405C18.3758 6.7283 17.8178 5.62055 16.875 4.91405ZM16.875 14.871C16.875 16.1116 15.8655 17.121 14.625 17.121H12.4793L13.7843 13.3373C13.9598 12.8273 13.8788 12.2611 13.566 11.8223C13.2525 11.3836 12.744 11.1211 12.2055 11.1211H11.0655L11.7983 8.71655C11.949 8.2193 11.8583 7.69505 11.5493 7.27805C11.2403 6.8603 10.764 6.62105 10.245 6.62105C9.69825 6.62105 9.19125 6.89405 8.89275 7.3463L5.17275 12.8768C4.8165 13.4235 4.7895 14.1188 5.1 14.6918C5.41125 15.2648 6.009 15.621 6.66075 15.621H7.6365L7.05975 17.121H4.125C2.8845 17.121 1.875 16.1116 1.875 14.871V7.91405C1.875 7.1648 2.2455 6.4673 2.8665 6.0488L8.1165 2.5058C8.8815 1.9898 9.8685 1.9898 10.6328 2.5058L15.8828 6.0488C16.5038 6.4673 16.8743 7.1648 16.8743 7.91405L16.875 14.871Z" fill="#03BF6A"/>
</g>
<defs>
<clipPath id="clip0_201_267">
<rect width="18" height="18" fill="white" transform="translate(0.375 0.621094)"/>
</clipPath>
</defs>
</svg>
