<svg width="3080" height="2830" viewBox="0 0 3080 2830" fill="none" xmlns="http://www.w3.org/2000/svg">
<path  d="M0 0L3079.64 3.23604e-06L3079.64 2830L3.04698e-06 2830L0 0Z" fill="white"/>
<path d="M3079.68 0L3079.68 1878.51L0.0377444 1878.51L0.0378265 -0.000134615L3079.68 0Z" fill="#00AF00"/>
<path fill-rule="evenodd" clip-rule="evenodd" d="M1436.5 1502.8C1398.07 1502.8 1366.92 1533.95 1366.92 1572.37C1366.92 1610.8 1398.07 1641.95 1436.5 1641.95L2584.04 1641.95L2291.76 1356.69L2789.66 870.763C2817.16 843.925 2817.7 799.877 2790.86 772.378C2764.02 744.879 2719.97 744.343 2692.47 771.181L2092.54 1356.69L2242.24 1502.8L1436.5 1502.8ZM1871.46 1140.91C1844.62 1113.41 1845.16 1069.36 1872.66 1042.52L2692.47 242.416C2719.97 215.578 2764.02 216.114 2790.85 243.613C2817.69 271.112 2817.15 315.161 2789.66 341.998L1969.84 1142.1C1942.34 1168.94 1898.3 1168.4 1871.46 1140.91ZM824.718 1536.5C797.219 1563.34 796.683 1607.39 823.521 1634.89C850.359 1662.39 894.407 1662.92 921.906 1636.08L2247.86 342.002C2275.36 315.164 2275.9 271.115 2249.06 243.616C2222.22 216.117 2178.17 215.581 2150.67 242.419L824.718 1536.5ZM1712.8 306.124C1712.8 344.549 1681.65 375.699 1643.22 375.699L837.478 375.699L987.183 521.805L387.248 1107.32C359.749 1134.16 315.7 1133.62 288.862 1106.12C262.024 1078.62 262.56 1034.57 290.059 1007.74L787.959 521.805L495.678 236.55L1643.22 236.55C1681.65 236.55 1712.8 267.699 1712.8 306.124ZM1208.26 737.589C1235.1 765.088 1234.56 809.136 1207.06 835.974L387.252 1636.08C359.753 1662.92 315.704 1662.38 288.867 1634.88C262.029 1607.38 262.565 1563.33 290.064 1536.5L1109.88 736.392C1137.37 709.554 1181.42 710.09 1208.26 737.589Z" fill="white"/>
<path d="M430.923 2612H183.222C175.051 2612 169.031 2610.28 165.16 2606.84C161.72 2602.97 160 2596.95 160 2588.78V2170.78C160 2162.61 161.72 2156.8 165.16 2153.36C169.031 2149.49 175.051 2147.56 183.222 2147.56H388.995C431.138 2147.56 462.316 2155.73 482.528 2172.07C502.74 2187.98 512.845 2212.71 512.845 2246.25V2277.21C512.845 2295.28 509.62 2310.11 503.17 2321.72C497.149 2332.9 487.688 2341.29 474.787 2346.88C502.31 2349.46 522.736 2358.92 536.067 2375.26C549.399 2391.6 556.064 2415.47 556.064 2446.86V2506.21C556.064 2542.33 545.743 2568.99 525.102 2586.2C504.89 2603.4 473.497 2612 430.923 2612ZM305.138 2257.22V2326.88H359.967C368.138 2326.88 374.158 2324.73 378.029 2320.43C382.329 2316.13 384.479 2309.68 384.479 2301.08V2283.02C384.479 2274.42 382.329 2267.97 378.029 2263.67C374.158 2259.37 368.138 2257.22 359.967 2257.22H305.138ZM305.138 2426.22V2502.34H388.995C397.165 2502.34 403.186 2500.19 407.056 2495.89C411.357 2491.59 413.507 2485.14 413.507 2476.54V2451.38C413.507 2442.78 411.357 2436.54 407.056 2432.67C403.186 2428.37 397.165 2426.22 388.995 2426.22H305.138Z" fill="#004400"/>
<path d="M975.743 2612H676.438C668.267 2612 662.246 2610.28 658.376 2606.84C654.936 2602.97 653.216 2596.95 653.216 2588.78V2170.78C653.216 2162.61 654.936 2156.8 658.376 2153.36C662.246 2149.49 668.267 2147.56 676.438 2147.56H975.743C983.914 2147.56 989.72 2149.49 993.16 2153.36C997.03 2156.8 998.965 2162.61 998.965 2170.78V2246.25C998.965 2254.42 997.03 2260.44 993.16 2264.31C989.72 2267.75 983.914 2269.47 975.743 2269.47H797.708V2319.14H923.494C931.665 2319.14 937.47 2321.08 940.91 2324.95C944.781 2328.39 946.716 2334.19 946.716 2342.37V2411.39C946.716 2419.56 944.781 2425.58 940.91 2429.45C937.47 2432.89 931.665 2434.61 923.494 2434.61H797.708V2490.08H975.743C983.914 2490.08 989.72 2492.02 993.16 2495.89C997.03 2499.33 998.965 2505.13 998.965 2513.31V2588.78C998.965 2596.95 997.03 2602.97 993.16 2606.84C989.72 2610.28 983.914 2612 975.743 2612Z" fill="#004400"/>
<path d="M1224.28 2612H1124.3C1116.13 2612 1110.11 2610.28 1106.24 2606.84C1102.8 2602.97 1101.08 2596.95 1101.08 2588.78V2170.78C1101.08 2162.61 1102.8 2156.8 1106.24 2153.36C1110.11 2149.49 1116.13 2147.56 1124.3 2147.56H1224.28C1232.45 2147.56 1238.26 2149.49 1241.7 2153.36C1245.57 2156.8 1247.5 2162.61 1247.5 2170.78V2319.14H1273.31L1339.75 2168.85C1342.76 2161.1 1346.84 2155.73 1352 2152.72C1357.16 2149.28 1363.83 2147.56 1372 2147.56H1471.34C1478.65 2147.56 1483.59 2149.49 1486.17 2153.36C1488.75 2156.8 1488.54 2161.96 1485.53 2168.85L1419.73 2319.14C1443.82 2320.43 1462.95 2329.03 1477.14 2344.95C1491.76 2360.43 1499.07 2381.07 1499.07 2406.87V2588.78C1499.07 2596.95 1497.14 2602.97 1493.27 2606.84C1489.83 2610.28 1484.02 2612 1475.85 2612H1376.51C1368.34 2612 1362.32 2610.28 1358.45 2606.84C1355.01 2602.97 1353.29 2596.95 1353.29 2588.78V2462.99C1353.29 2456.11 1351.57 2450.73 1348.13 2446.86C1344.69 2442.99 1339.53 2441.06 1332.65 2441.06H1247.5V2588.78C1247.5 2596.95 1245.57 2602.97 1241.7 2606.84C1238.26 2610.28 1232.45 2612 1224.28 2612Z" fill="#004400"/>
<path d="M1811.09 2612H1706.59C1698.42 2612 1692.4 2610.28 1688.53 2606.84C1685.09 2602.97 1683.37 2596.95 1683.37 2588.78V2272.05H1588.55C1580.38 2272.05 1574.36 2270.33 1570.48 2266.89C1567.04 2263.02 1565.32 2257 1565.32 2248.83V2170.78C1565.32 2162.61 1567.04 2156.8 1570.48 2153.36C1574.36 2149.49 1580.38 2147.56 1588.55 2147.56H1929.14C1937.31 2147.56 1943.11 2149.49 1946.55 2153.36C1950.42 2156.8 1952.36 2162.61 1952.36 2170.78V2248.83C1952.36 2257 1950.42 2263.02 1946.55 2266.89C1943.11 2270.33 1937.31 2272.05 1929.14 2272.05H1834.31V2588.78C1834.31 2596.95 1832.38 2602.97 1828.51 2606.84C1825.07 2610.28 1819.26 2612 1811.09 2612Z" fill="#004400"/>
<path d="M2431.23 2490.08C2431.23 2509.86 2428.22 2527.93 2422.19 2544.27C2416.6 2560.18 2406.28 2573.94 2391.23 2585.55C2376.61 2596.73 2356.18 2605.55 2329.95 2612C2304.15 2618.45 2271.25 2621.67 2231.26 2621.67C2191.27 2621.67 2158.15 2618.45 2131.92 2612C2105.69 2605.55 2085.05 2596.73 2069.99 2585.55C2055.37 2573.94 2045.05 2560.18 2039.03 2544.27C2033.44 2527.93 2030.65 2509.86 2030.65 2490.08V2270.12C2030.65 2250.34 2033.44 2232.49 2039.03 2216.58C2045.05 2200.24 2055.37 2186.26 2069.99 2174.65C2085.05 2163.04 2105.69 2154.01 2131.92 2147.56C2158.15 2141.11 2191.27 2137.88 2231.26 2137.88C2271.25 2137.88 2304.15 2141.11 2329.95 2147.56C2356.18 2154.01 2376.61 2163.04 2391.23 2174.65C2406.28 2186.26 2416.6 2200.24 2422.19 2216.58C2428.22 2232.49 2431.23 2250.34 2431.23 2270.12V2490.08ZM2177.07 2466.86C2177.07 2475.46 2180.3 2482.77 2186.75 2488.79C2193.2 2494.38 2208.04 2497.18 2231.26 2497.18C2254.48 2497.18 2269.32 2494.38 2275.77 2488.79C2282.22 2482.77 2285.44 2475.46 2285.44 2466.86V2293.34C2285.44 2285.17 2282.22 2278.29 2275.77 2272.7C2269.32 2266.68 2254.48 2263.67 2231.26 2263.67C2208.04 2263.67 2193.2 2266.68 2186.75 2272.7C2180.3 2278.29 2177.07 2285.17 2177.07 2293.34V2466.86Z" fill="#004400"/>
<path d="M2662.35 2612H2562.37C2554.2 2612 2548.18 2610.28 2544.31 2606.84C2540.87 2602.97 2539.15 2596.95 2539.15 2588.78V2170.78C2539.15 2162.61 2540.87 2156.8 2544.31 2153.36C2548.18 2149.49 2554.2 2147.56 2562.37 2147.56H2759.76C2818.24 2147.56 2858.23 2159.17 2879.74 2182.39C2901.24 2205.61 2911.99 2235.93 2911.99 2273.34V2355.91C2911.99 2393.32 2901.24 2423.64 2879.74 2446.86C2858.23 2470.09 2818.24 2481.7 2759.76 2481.7H2685.57V2588.78C2685.57 2596.95 2683.64 2602.97 2679.77 2606.84C2676.33 2610.28 2670.52 2612 2662.35 2612ZM2684.28 2268.18V2365.59H2742.34C2754.81 2365.59 2762.98 2362.36 2766.85 2355.91C2770.72 2349.46 2772.66 2342.15 2772.66 2333.98V2299.79C2772.66 2291.62 2770.72 2284.31 2766.85 2277.86C2762.98 2271.41 2754.81 2268.18 2742.34 2268.18H2684.28Z" fill="#004400"/>
</svg>
