<svg width="25" height="25" viewBox="0 0 25 25" fill="none" xmlns="http://www.w3.org/2000/svg">
<g clip-path="url(#clip0_221_7253)">
<path d="M23.918 11.8276H1.91797C1.36568 11.8276 0.917969 12.2754 0.917969 12.8276C0.917969 13.3799 1.36568 13.8276 1.91797 13.8276H23.918C24.4703 13.8276 24.918 13.3799 24.918 12.8276C24.918 12.2754 24.4703 11.8276 23.918 11.8276Z" fill="#03BF6A"/>
<path d="M23.918 4.82764H1.91797C1.36568 4.82764 0.917969 5.27535 0.917969 5.82764C0.917969 6.37992 1.36568 6.82764 1.91797 6.82764H23.918C24.4703 6.82764 24.918 6.37992 24.918 5.82764C24.918 5.27535 24.4703 4.82764 23.918 4.82764Z" fill="#03BF6A"/>
<path d="M23.918 18.8276H1.91797C1.36568 18.8276 0.917969 19.2754 0.917969 19.8276C0.917969 20.3799 1.36568 20.8276 1.91797 20.8276H23.918C24.4703 20.8276 24.918 20.3799 24.918 19.8276C24.918 19.2754 24.4703 18.8276 23.918 18.8276Z" fill="#03BF6A"/>
</g>
<defs>
<clipPath id="clip0_221_7253">
<rect width="24" height="24" fill="white" transform="translate(0.917969 0.827637)"/>
</clipPath>
</defs>
</svg>
